<svg width="170" height="66" viewBox="0 0 170 66" xmlns="http://www.w3.org/2000/svg">
	<path fill="#262626" d="M169.898,23.216l-3.104,1.441c-0.987,0.623-12.229,5.195-16.283,6.682
		c-3.562,1.303-20.383,5.417-22.307,5.793c-0.742,0.146-1.981,0.104-2.771,0.211c-0.785,0.101-1.512,0.146-2.217,0.135
		c-0.693-0.012-1.318-0.084-1.859-0.222c-0.549-0.133-0.933-0.368-1.17-0.703c-0.023-0.029-0.056-0.091-0.1-0.174
		c-0.037-0.09-0.062-0.148-0.089-0.179c0.39-0.195,0.912-0.562,1.604-1.106c0.685-0.541,1.399-1.12,2.141-1.742
		c0.74-0.62,1.425-1.213,2.041-1.779c0.619-0.562,1.047-0.961,1.252-1.192c0.374-0.294,0.72-0.619,1.068-0.961
		c0.348-0.348,0.655-0.696,0.926-1.051c0.266-0.357,0.449-0.703,0.539-1.038c0.086-0.34,0.043-0.658-0.168-0.945
		c-0.178-0.253-0.438-0.439-0.779-0.546c-0.334-0.105-0.91-0.079-1.682,0.069c-1.004,0.215-2.025,0.563-3.107,1.053
		c-1.08,0.489-2.096,1.058-3.057,1.718c-0.963,0.649-1.848,1.362-2.651,2.127c-0.806,0.766-1.425,1.519-1.849,2.26
		c-0.42,0.742-0.629,1.439-0.612,2.101c0.009,0.189,0.101,0.354,0.157,0.523c-3.836,1.092-9.278,2.518-10.32,2.44
		c-0.507-0.037-2.297-0.109-2.641-0.152c0.007-0.238,0.094-0.531,0.254-0.868c0.158-0.342,0.344-0.685,0.551-1.029
		c0.207-0.35,0.404-0.654,0.604-0.932c0.193-0.271,0.328-0.485,0.397-0.645c0.417-0.689,0.826-1.333,1.235-1.931
		c0.408-0.594,0.768-1.256,1.078-1.983c0.285-0.623,0.383-1.178,0.303-1.669c-0.08-0.495-0.279-0.869-0.584-1.132
		c-0.309-0.259-0.705-0.408-1.194-0.453c-0.487-0.037-1.024,0.063-1.608,0.301c-1.565,0.743-3.067,1.686-4.514,2.836
		c-1.445,1.153-2.854,2.252-4.22,3.292c-0.567,0.383-1.128,0.763-1.688,1.146c-0.562,0.379-1.121,0.812-1.668,1.281l0.521-2.104
		c0.08-0.396,0.236-0.84,0.463-1.337c0.23-0.495,0.213-0.96-0.051-1.398c-0.381-0.56-1.111-0.631-2.199-0.212
		c-1.086,0.421-2.246,1.043-3.482,1.873c-1.233,0.828-2.43,1.688-3.582,2.573c-0.074,0.059-0.119,0.094-0.192,0.15
		c-0.558,0.341-1.109,0.684-1.618,1.037c-0.629,0.438-1.059,0.711-1.285,0.827c-0.782,0.352-1.643,0.713-2.587,1.079
		c-0.946,0.371-1.825,0.543-2.636,0.521c-0.477-0.532-0.625-1.257-0.442-2.181c0.183-0.919,0.389-1.698,0.618-2.339
		c0.104-0.435,0.291-0.881,0.563-1.332c0.269-0.454,0.433-0.895,0.491-1.328c0.077-0.77-0.127-1.191-0.611-1.268
		c-0.482-0.079-1.051-0.019-1.699,0.183c-0.65,0.201-1.332,0.421-1.966,0.815c-0.37,0.229-0.678,0.489-0.954,0.751
		c-0.355,0.203-0.691,0.37-0.986,0.471c-1.617,0.865-3.268,1.677-4.959,2.424c-1.686,0.753-3.415,1.388-5.182,1.899
		c-0.115,0.075-0.381,0.144-0.799,0.207c-0.416,0.066-0.863,0.151-1.34,0.254c-0.533,0.108-1.125,0.246-1.777,0.426
		c-0.245-0.759-0.349-1.582-0.301-2.468c0.039-0.874,0.172-1.775,0.396-2.705c0.22-0.924,0.492-1.808,0.812-2.652
		c0.316-0.843,6.99-8.218,9.704-11.442c2.708-3.225,5.118-6.652,7.219-10.279c0.263-0.447,0.608-0.974,1.038-1.582
		c0.432-0.611,0.83-1.25,1.195-1.919c0.363-0.663,0.621-1.322,0.778-1.971c0.153-0.645,0.083-1.292-0.215-1.925
		c-0.447-0.992-1.148-1.368-2.093-1.135c-0.95,0.239-1.733,0.562-2.364,0.978c-1.311,0.898-2.439,2.013-3.382,3.33
		c-0.944,1.32-1.813,2.619-2.606,3.895c-0.961,1.475-1.889,2.958-2.783,4.453c-0.9,1.497-1.801,2.983-2.697,4.452
		c-0.83,1.581-1.686,3.193-2.572,4.845c-0.883,1.644-1.673,3.347-2.367,5.098l-1.135,2.716c-0.035,0.027-0.082,0.073-0.112,0.094
		c-0.656,0.534-1.39,0.995-2.199,1.386c-0.819,0.394-1.667,0.516-2.549,0.369c-0.444-0.067-0.8-0.175-1.065-0.327
		c0.168-0.941,0.18-1.843,0.021-2.709c-0.153-0.857-0.639-1.454-1.442-1.781c-0.4-0.092-0.744-0.055-1.029,0.118
		c-0.096-0.471-0.377-0.767-0.834-0.886c-0.718-0.113-1.392,0.069-2.014,0.536c-0.632,0.472-1.166,0.974-1.606,1.52
		c-0.769,0.626-1.564,1.273-2.395,1.926c-0.729,0.578-4.615,3.982-9.097,4.999c1-1.868,1.917-3.756,2.722-5.62
		c0.881-2.031,1.661-4.103,2.315-6.155c0.661-2.065,1.183-4.182,1.548-6.293c0.366-2.157,0.525-4.276,0.478-6.357l-0.013-0.633
		c-0.005-0.334-0.023-0.699-0.056-1.092l-0.036-0.478c-0.016-0.207-0.03-0.407-0.046-0.589l-0.026-0.395
		c-0.008-0.134-0.016-0.239-0.021-0.315l-0.029-0.102c-0.121-0.25-0.291-0.531-0.511-0.844c-0.214-0.295-0.465-0.572-0.763-0.845
		c-0.296-0.272-0.655-0.5-1.063-0.675c-0.4-0.173-0.823-0.271-1.264-0.289c-1.38-0.035-2.788,0.292-4.199,0.969
		c-1.417,0.677-2.811,1.593-4.146,2.723c-1.386,1.161-2.715,2.501-3.955,3.981c-1.253,1.489-2.451,3.085-3.555,4.741
		c-0.59,0.872-7.607,12.21-7.587,13.047c0.01,0.424,0.095,0.853,0.246,1.274c0.157,0.434,0.403,0.839,0.731,1.199
		c0.321,0.365,0.722,0.664,1.228,0.912c0.494,0.235,1.079,0.365,1.743,0.379l0.308,0.008l-0.007-0.311
		c-0.007-0.389-0.082-0.753-0.222-1.084c-0.091-0.202-0.175-0.402-0.259-0.606l-0.109-0.26c-0.141-0.331-0.54-1.557-0.551-1.825
		c0.186-0.812,6.961-11.35,8.387-13.333c1.304-1.831,2.833-3.609,4.551-5.286c1.667-1.63,3.598-3.034,5.743-4.176
		c0.053-0.001,0.121-0.005,0.202-0.013l0.17-0.016c0.171-0.025,0.311-0.038,0.36-0.035c0.336,0.02,0.689,0.049,0.979,0.112
		c0.191,0.042,0.342,0.167,0.465,0.383c0.004,0.144,0.016,0.36,0.039,0.646c0.029,0.328,0.042,0.678,0.055,1.05l0.023,1.164
		c0.004,0.282,0.008,0.492,0.014,0.61c0.044,2.02-0.135,4.065-0.537,6.077c-0.402,2.003-0.946,4.024-1.613,6.003
		c-0.704,2.033-1.49,4.023-2.336,5.918c-0.879,1.965-1.746,3.896-2.587,5.757c-0.062,0.104-0.262,0.313-0.895,0.57
		c-0.566,0.227-1.227,0.438-1.966,0.634c-0.837,0.229-1.695,0.429-2.547,0.604c-0.941,0.193-1.854,0.384-2.729,0.578
		c-0.862,0.191-1.685,0.398-2.443,0.615c-0.774,0.224-1.366,0.434-1.806,0.649c-2.37,1.2-4.515,2.659-6.375,4.333
		c-1.849,1.664-3.427,3.503-4.688,5.462c-1.262,1.938-2.229,4.004-2.879,6.147c-0.646,2.108-0.95,4.245-0.905,6.346
		c0.014,0.521,0.089,1.096,0.22,1.705c0.138,0.642,0.393,1.253,0.755,1.82c0.358,0.571,0.875,1.068,1.531,1.472
		c0.655,0.404,1.505,0.62,2.608,0.658c0.271,0.006,0.54-0.003,0.804-0.026c0.928-0.079,1.835-0.344,2.697-0.781
		c1.055-0.54,2.068-1.229,3.016-2.056c0.938-0.839,1.72-1.667,2.394-2.526l0.075-0.099c0.63-0.816,1.156-1.494,1.57-2.056
		l0.223-0.337c0.331-0.5,0.783-1.182,1.366-2.043c0.47-0.71,0.984-1.476,1.54-2.304l1.678-2.504
		c0.676-1.014,1.377-2.062,2.103-3.151l6.914-10.419l0.14-0.413c2.858-0.693,6.827-2.097,9.642-5.1l-0.724,1.766
		c-0.255,0.626-0.488,1.364-0.694,2.222c-0.208,0.854-0.299,1.69-0.269,2.498c0.033,0.813,0.257,1.504,0.678,2.073
		c0.422,0.572,1.15,0.868,2.192,0.895c0.828,0.016,1.622-0.189,2.369-0.606c0.753-0.413,1.423-0.939,2.009-1.569
		c0.587-0.63,1.101-1.322,1.559-2.078c0.453-0.756,0.846-1.489,1.17-2.188l0.814-2.111c0.684,0.28,1.392,0.379,2.133,0.298
		c0.738-0.075,1.456-0.261,2.159-0.559c0.412-0.172,0.809-0.419,1.213-0.641c-0.331,1.055-0.621,2.106-0.83,3.15
		c-0.119,0.676-0.182,1.391-0.174,2.144c0.002,0.759,0.141,1.439,0.406,2.046c0.266,0.614,0.686,1.091,1.256,1.432
		c0.575,0.344,1.311,0.418,2.197,0.216c1.016-0.146,1.986-0.456,2.911-0.931c0.927-0.473,1.884-0.938,2.872-1.38l10.104-4.775
		c0.268-0.145,0.559-0.405,0.844-0.645c-0.197,0.843-0.381,1.75-0.545,2.736c-0.172,1.045-0.219,1.995-0.143,2.869
		c0.076,0.877,0.328,1.578,0.756,2.113c0.429,0.535,1.133,0.688,2.115,0.46c1.119-0.287,2.188-0.729,3.208-1.317
		c0.886-0.508,1.755-1.028,2.619-1.555c0.012,0,0.019,0.006,0.03,0.009c0.271,0.028,0.535-0.052,0.795-0.235
		c0.35-0.2,0.662-0.423,0.937-0.659c0.081-0.071,0.188-0.146,0.276-0.221c0.499-0.256,0.994-0.515,1.477-0.803
		c0.613-0.361,1.113-0.748,1.508-1.164c0.035-0.037,0.033-0.065,0.063-0.104c0.421-0.256,0.841-0.509,1.258-0.772
		c0.266-0.141,0.643-0.346,1.126-0.618c0.479-0.271,0.974-0.523,1.462-0.748c0.018,0.382,0.005,0.757-0.027,1.125
		c-0.039,0.364-0.072,0.72-0.115,1.062c-0.078,0.108-0.193,0.425-0.344,0.958c-0.154,0.531-0.316,1.002-0.488,1.417
		c-0.508,0.419-0.799,0.851-0.869,1.296c-0.032,0.39,0.027,0.692,0.187,0.905c0.153,0.216,0.36,0.362,0.613,0.438
		c0.253,0.08,0.507,0.086,0.76,0.018c0.257-0.063,0.48-0.207,0.688-0.436c0.889-1.299,1.996-2.478,3.31-3.538
		c1.321-1.059,2.603-2.027,3.851-2.909c0.988-0.737,2.082-1.469,3.285-2.198c1.205-0.726,2.426-1.265,3.67-1.613
		c-0.078,0.688-0.387,1.459-0.918,2.312c-0.533,0.86-0.922,1.426-1.164,1.708c-0.231,0.327-0.5,0.688-0.799,1.067
		c-0.291,0.386-0.568,0.781-0.812,1.184c-0.248,0.397-0.455,0.806-0.631,1.221c-0.172,0.416-0.219,0.855-0.141,1.317
		c0.151,0.938,0.555,1.461,1.196,1.573c0.644,0.106,1.481-0.272,2.312-0.099c1.188,0.251,8.543-1.141,13.358-2.911
		c0.136,0.095,0.29,0.194,0.466,0.304c0.371,0.222,0.848,0.44,1.426,0.656c0.578,0.212,1.312,0.359,2.201,0.438
		c0.896,0.078,1.938,0.052,3.144-0.071c1.22-0.13,12.475-2.557,14.106-3.003c0.875-0.168,9.918-2.883,12.598-3.603
		c4.518-1.208,14.977-5.441,15.945-6.023c0.969-0.574,1.711-1.113,2.241-1.614C169.979,23.945,170.121,23.536,169.898,23.216z
		 M61.369,20.466c0.521-0.978,1.066-1.978,1.645-2.994c1.061-1.721,2.121-3.404,3.189-5.031c1.064-1.634,2.227-3.202,3.488-4.697
		c0.439-0.522,1-1.178,1.691-1.966c0.687-0.783,1.431-1.42,2.233-1.915c-0.138,0.498-0.307,0.98-0.508,1.45
		c-0.202,0.474-0.35,0.861-0.442,1.171c-0.815,1.7-1.713,3.228-2.686,4.582c-2.068,3.261-4.403,6.333-6.992,9.216
		c-0.5,0.527-1.01,1.067-1.535,1.629c-0.527,0.562-2.712,3.297-3.217,3.764C58.692,24.666,60.852,21.45,61.369,20.466z
		 M25.056,37.834c0.125,0.09,0.286,0.152,0.488,0.18v0.213c-0.01,0.045-0.072,0.224-0.469,0.919c-0.337,0.585-0.767,1.316-1.3,2.206
		c-0.541,0.891-1.143,1.871-1.806,2.945c-0.673,1.072-1.351,2.138-2.042,3.2c-0.691,1.061-1.354,2.069-1.98,3.017
		c-0.674,1.007-1.216,1.778-1.644,2.354l-0.212,0.25c-0.233,0.272-0.587,0.69-1.059,1.242c-0.649,0.759-1.377,1.581-2.179,2.472
		c-0.808,0.884-1.607,1.74-2.4,2.579c-0.852,0.909-1.396,1.473-1.757,1.826c-0.193,0.185-0.458,0.401-0.773,0.636
		c-0.335,0.256-0.707,0.492-1.105,0.688c-0.415,0.217-0.855,0.4-1.307,0.547c-0.293,0.094-0.568,0.153-0.819,0.174
		c-0.128,0.011-0.25,0.014-0.371,0.005c-0.574-0.027-0.97-0.206-1.212-0.552c-0.269-0.376-0.455-0.819-0.557-1.322
		c-0.111-0.51-0.158-1.021-0.141-1.521c0.021-0.457,0.032-0.787,0.039-1.015l0.002-0.107c0.007-1.313,0.268-2.779,0.773-4.361
		c0.501-1.574,1.249-3.183,2.227-4.771c0.976-1.581,2.167-3.137,3.542-4.616c1.395-1.49,2.966-2.792,4.671-3.873
		c1.713-1.089,3.62-1.959,5.67-2.576c1.168-0.351,2.392-0.581,3.635-0.69C23.647,37.819,24.352,37.822,25.056,37.834z
		 M46.338,33.591c-0.181,0.436-0.373,0.896-0.571,1.392c-0.522,1.096-1.242,1.987-2.159,2.677c-0.921,0.7-1.985,1.193-3.198,1.496
		c-0.653,0.169-1.036,0.009-1.168-0.479c-0.127-0.487-0.125-1.066,0.01-1.738c0.127-0.667,0.319-1.34,0.574-2.016
		c0.262-0.676,0.442-1.131,0.544-1.384c0.515-0.989,1.169-1.906,1.976-2.759c0.802-0.847,1.794-1.571,2.985-2.17
		c-0.147,0.629-0.073,1.265,0.222,1.91c0.296,0.645,0.675,1.211,1.135,1.687C46.63,32.693,46.515,33.154,46.338,33.591z
		 M120.02,32.812c0.4-0.697,0.979-1.43,1.707-2.197c0.74-0.765,1.551-1.479,2.474-2.146c0.897-0.655,1.762-1.12,2.575-1.387
		l0.123,0.186c0.267,0.366,0.218,0.807-0.125,1.323c-0.347,0.518-0.842,1.059-1.482,1.628c-0.643,0.565-1.333,1.108-2.087,1.63
		c-0.751,0.52-1.37,0.957-1.867,1.311c-0.354,0.243-0.616,0.438-0.808,0.589c-0.172,0.144-0.434,0.34-0.784,0.58
		C119.516,34.011,119.613,33.502,120.02,32.812z"/>
	<path fill="#262626" d="M78.521,18.762c0.553,0.337,1.049,0.294,1.487-0.128c0.354-0.312,0.604-0.716,0.753-1.208
		c0.148-0.488,0.447-0.896,0.896-1.223c1.111-0.904,2.409-1.457,3.895-1.657c1.484-0.203,2.925-0.222,4.32-0.056
		c0.242,0.027,0.448-0.052,0.625-0.235c0.172-0.183,0.272-0.393,0.302-0.632c0.01-0.428-0.167-0.675-0.529-0.738
		c-0.365-0.063-0.688-0.084-0.971-0.06c-1.678-0.091-3.361-0.016-5.058,0.228c-0.607,0.151-1.247,0.333-1.918,0.56
		c-0.67,0.227-1.303,0.507-1.894,0.844c-0.589,0.336-1.114,0.752-1.57,1.246c-0.458,0.492-0.776,1.058-0.962,1.69
		C77.759,17.975,77.966,18.433,78.521,18.762z"/>
</svg>
